<svg width="12" height="11" viewBox="0 0 12 11" fill="none" xmlns="http://www.w3.org/2000/svg">
<path fill-rule="evenodd" clip-rule="evenodd" d="M3.80001 10.2354C4.72155 10.2437 5.6355 10.0683 6.4885 9.71932C7.34149 9.37035 8.11643 8.85487 8.76804 8.20296C9.41966 7.55106 9.9349 6.77582 10.2837 5.9225C10.6324 5.06919 10.8077 4.15491 10.7993 3.23308V2.89999C11.2651 2.54524 11.6703 2.11733 11.9992 1.6329C11.5522 1.8273 11.0814 1.96174 10.5991 2.03276C11.0949 1.7213 11.4707 1.25119 11.6655 0.698904C11.1839 0.967162 10.6683 1.16904 10.1326 1.29906C9.90698 1.04505 9.62963 0.842267 9.31919 0.704334C9.00874 0.5664 8.67239 0.496508 8.33272 0.499351C7.68161 0.509223 7.05994 0.77235 6.59949 1.23296C6.13903 1.69356 5.87599 2.31544 5.86612 2.96675C5.85098 3.14726 5.87372 3.32894 5.93287 3.50015C4.95184 3.45279 3.99225 3.19622 3.11842 2.74765C2.24459 2.29907 1.47669 1.66885 0.866194 0.899207C0.646809 1.28536 0.532029 1.72213 0.533215 2.16629C0.542013 2.56937 0.642647 2.96512 0.827452 3.32341C1.01226 3.6817 1.27636 3.99308 1.59965 4.23384C1.19901 4.22574 0.807804 4.11075 0.466471 3.90075C0.465847 4.47191 0.665759 5.02516 1.03132 5.46391C1.39687 5.90267 1.90485 6.19907 2.46659 6.30139C2.24951 6.35998 2.02428 6.38254 1.79989 6.36816C1.64144 6.3788 1.48252 6.35605 1.33341 6.30139C1.4964 6.79559 1.808 7.22736 2.22561 7.53769C2.64322 7.84801 3.14646 8.02173 3.66652 8.0351C2.7902 8.71979 1.71189 9.09491 0.599961 9.10188C0.397666 9.11271 0.194969 9.09016 0 9.03511C1.10321 9.83649 2.43679 10.2577 3.80001 10.2354Z" fill="#0E2368"/>
</svg>
